<mxfile host="app.diagrams.net" agent="Mozilla/5.0 (Windows NT 10.0; Win64; x64) AppleWebKit/537.36 (KHTML, like Gecko) Chrome/134.0.0.0 Safari/537.36" version="26.1.1">
  <diagram name="Page-1" id="74b105a0-9070-1c63-61bc-23e55f88626e">
    <mxGraphModel dx="1613" dy="696" grid="1" gridSize="10" guides="1" tooltips="1" connect="1" arrows="1" fold="1" page="1" pageScale="1.5" pageWidth="1169" pageHeight="826" background="none" math="0" shadow="0">
      <root>
        <mxCell id="0" style=";html=1;" />
        <mxCell id="1" style=";html=1;" parent="0" />
        <mxCell id="HmFR4SPm93V1ZtyjPbFf-37" style="edgeStyle=orthogonalEdgeStyle;rounded=0;orthogonalLoop=1;jettySize=auto;html=1;exitX=0.416;exitY=0.007;exitDx=0;exitDy=0;exitPerimeter=0;entryX=1.006;entryY=0.749;entryDx=0;entryDy=0;entryPerimeter=0;" edge="1" parent="1" source="10b056a9c633e61c-15" target="HmFR4SPm93V1ZtyjPbFf-2">
          <mxGeometry relative="1" as="geometry">
            <mxPoint x="1520" y="490" as="targetPoint" />
          </mxGeometry>
        </mxCell>
        <mxCell id="10b056a9c633e61c-15" value="MSSQL DB&#xa;" style="strokeWidth=2;dashed=0;align=center;fontSize=12;verticalLabelPosition=bottom;verticalAlign=top;shape=mxgraph.eip.message_store;fillColor=#c0f5a9" parent="1" vertex="1">
          <mxGeometry x="1550" y="620" width="150" height="90" as="geometry" />
        </mxCell>
        <mxCell id="10b056a9c633e61c-30" value="&lt;h3 data-end=&quot;82&quot; data-start=&quot;0&quot;&gt;&lt;strong data-end=&quot;80&quot; data-start=&quot;4&quot;&gt;Proposed System Design for EPS+ (Pension Contribution Management System)&lt;/strong&gt;&lt;/h3&gt;&lt;div&gt;&lt;strong data-end=&quot;80&quot; data-start=&quot;4&quot;&gt;Design by Victor C. Ndulue&lt;/strong&gt;&lt;/div&gt;&lt;p data-end=&quot;303&quot; data-start=&quot;84&quot;&gt;&lt;/p&gt;" style="text;strokeColor=none;fillColor=none;html=1;fontSize=24;fontStyle=1;verticalAlign=middle;align=center;" parent="1" vertex="1">
          <mxGeometry x="82" y="240" width="1590" height="110" as="geometry" />
        </mxCell>
        <mxCell id="HmFR4SPm93V1ZtyjPbFf-32" style="edgeStyle=orthogonalEdgeStyle;rounded=0;orthogonalLoop=1;jettySize=auto;html=1;entryX=1;entryY=0.25;entryDx=0;entryDy=0;" edge="1" parent="1" source="HmFR4SPm93V1ZtyjPbFf-2" target="HmFR4SPm93V1ZtyjPbFf-11">
          <mxGeometry relative="1" as="geometry" />
        </mxCell>
        <mxCell id="HmFR4SPm93V1ZtyjPbFf-2" value="Redis&amp;nbsp;&lt;span style=&quot;background-color: light-dark(#ffffff, var(--ge-dark-color, #121212)); color: light-dark(rgb(0, 0, 0), rgb(255, 255, 255));&quot;&gt;Cache&lt;/span&gt;" style="image;aspect=fixed;html=1;points=[];align=center;fontSize=12;image=img/lib/azure2/databases/Cache_Redis.svg;" vertex="1" parent="1">
          <mxGeometry x="1460" y="540" width="70" height="56.88" as="geometry" />
        </mxCell>
        <mxCell id="HmFR4SPm93V1ZtyjPbFf-4" value="User" style="points=[[0.35,0,0],[0.98,0.51,0],[1,0.71,0],[0.67,1,0],[0,0.795,0],[0,0.65,0]];verticalLabelPosition=bottom;sketch=0;html=1;verticalAlign=top;aspect=fixed;align=center;pointerEvents=1;shape=mxgraph.cisco19.user;fillColor=#005073;strokeColor=none;" vertex="1" parent="1">
          <mxGeometry x="490" y="420" width="60" height="60" as="geometry" />
        </mxCell>
        <mxCell id="HmFR4SPm93V1ZtyjPbFf-11" value="CORE SERVICES" style="swimlane;startSize=0;" vertex="1" parent="1">
          <mxGeometry x="750" y="520" width="610" height="200" as="geometry" />
        </mxCell>
        <mxCell id="HmFR4SPm93V1ZtyjPbFf-25" style="edgeStyle=orthogonalEdgeStyle;rounded=0;orthogonalLoop=1;jettySize=auto;html=1;entryX=0.5;entryY=0;entryDx=0;entryDy=0;exitX=0.5;exitY=0;exitDx=0;exitDy=0;" edge="1" parent="HmFR4SPm93V1ZtyjPbFf-11" source="HmFR4SPm93V1ZtyjPbFf-13" target="HmFR4SPm93V1ZtyjPbFf-14">
          <mxGeometry relative="1" as="geometry" />
        </mxCell>
        <mxCell id="HmFR4SPm93V1ZtyjPbFf-27" style="edgeStyle=orthogonalEdgeStyle;rounded=0;orthogonalLoop=1;jettySize=auto;html=1;exitX=1;exitY=0.75;exitDx=0;exitDy=0;entryX=0;entryY=0.75;entryDx=0;entryDy=0;" edge="1" parent="HmFR4SPm93V1ZtyjPbFf-11" source="HmFR4SPm93V1ZtyjPbFf-12" target="HmFR4SPm93V1ZtyjPbFf-13">
          <mxGeometry relative="1" as="geometry" />
        </mxCell>
        <mxCell id="HmFR4SPm93V1ZtyjPbFf-12" value="&lt;b&gt;User&lt;/b&gt;&lt;div&gt;&lt;b&gt;Management&lt;/b&gt;&lt;/div&gt;&lt;div&gt;&lt;b&gt;Service&lt;/b&gt;&lt;/div&gt;" style="whiteSpace=wrap;html=1;" vertex="1" parent="HmFR4SPm93V1ZtyjPbFf-11">
          <mxGeometry x="110" y="40" width="80" height="120" as="geometry" />
        </mxCell>
        <mxCell id="HmFR4SPm93V1ZtyjPbFf-26" style="edgeStyle=orthogonalEdgeStyle;rounded=0;orthogonalLoop=1;jettySize=auto;html=1;exitX=0;exitY=0.5;exitDx=0;exitDy=0;entryX=1;entryY=0.5;entryDx=0;entryDy=0;" edge="1" parent="HmFR4SPm93V1ZtyjPbFf-11" source="HmFR4SPm93V1ZtyjPbFf-13" target="HmFR4SPm93V1ZtyjPbFf-12">
          <mxGeometry relative="1" as="geometry" />
        </mxCell>
        <mxCell id="HmFR4SPm93V1ZtyjPbFf-13" value="&lt;b&gt;Contribution Processing&amp;nbsp;&lt;/b&gt;&lt;div&gt;&lt;b&gt;Service&lt;/b&gt;&lt;/div&gt;" style="whiteSpace=wrap;html=1;" vertex="1" parent="HmFR4SPm93V1ZtyjPbFf-11">
          <mxGeometry x="210" y="40" width="80" height="120" as="geometry" />
        </mxCell>
        <mxCell id="HmFR4SPm93V1ZtyjPbFf-14" value="&lt;b&gt;Notification Service&lt;/b&gt;" style="whiteSpace=wrap;html=1;" vertex="1" parent="HmFR4SPm93V1ZtyjPbFf-11">
          <mxGeometry x="410" y="40" width="80" height="120" as="geometry" />
        </mxCell>
        <mxCell id="HmFR4SPm93V1ZtyjPbFf-21" style="edgeStyle=orthogonalEdgeStyle;rounded=0;orthogonalLoop=1;jettySize=auto;html=1;entryX=1;entryY=0.5;entryDx=0;entryDy=0;" edge="1" parent="HmFR4SPm93V1ZtyjPbFf-11" source="HmFR4SPm93V1ZtyjPbFf-15" target="HmFR4SPm93V1ZtyjPbFf-14">
          <mxGeometry relative="1" as="geometry" />
        </mxCell>
        <mxCell id="HmFR4SPm93V1ZtyjPbFf-59" style="edgeStyle=orthogonalEdgeStyle;rounded=0;orthogonalLoop=1;jettySize=auto;html=1;entryX=0.5;entryY=0;entryDx=0;entryDy=0;exitX=0.5;exitY=0;exitDx=0;exitDy=0;" edge="1" parent="HmFR4SPm93V1ZtyjPbFf-11" source="HmFR4SPm93V1ZtyjPbFf-15" target="HmFR4SPm93V1ZtyjPbFf-53">
          <mxGeometry relative="1" as="geometry" />
        </mxCell>
        <mxCell id="HmFR4SPm93V1ZtyjPbFf-15" value="&lt;b&gt;Background Job&lt;/b&gt;&lt;div&gt;&lt;b&gt;Handler Service&lt;/b&gt;&lt;/div&gt;" style="whiteSpace=wrap;html=1;" vertex="1" parent="HmFR4SPm93V1ZtyjPbFf-11">
          <mxGeometry x="510" y="40" width="80" height="120" as="geometry" />
        </mxCell>
        <mxCell id="HmFR4SPm93V1ZtyjPbFf-52" style="edgeStyle=orthogonalEdgeStyle;rounded=0;orthogonalLoop=1;jettySize=auto;html=1;entryX=0.5;entryY=1;entryDx=0;entryDy=0;exitX=0.425;exitY=1.002;exitDx=0;exitDy=0;exitPerimeter=0;" edge="1" parent="HmFR4SPm93V1ZtyjPbFf-11" source="HmFR4SPm93V1ZtyjPbFf-12" target="HmFR4SPm93V1ZtyjPbFf-14">
          <mxGeometry relative="1" as="geometry" />
        </mxCell>
        <mxCell id="HmFR4SPm93V1ZtyjPbFf-51" value="&lt;b&gt;Auth&lt;/b&gt;&lt;div&gt;&lt;b&gt;Service&lt;/b&gt;&lt;/div&gt;" style="whiteSpace=wrap;html=1;" vertex="1" parent="HmFR4SPm93V1ZtyjPbFf-11">
          <mxGeometry x="10" y="40" width="80" height="120" as="geometry" />
        </mxCell>
        <mxCell id="HmFR4SPm93V1ZtyjPbFf-53" value="&lt;b&gt;Reporting&amp;nbsp;&lt;/b&gt;&lt;div&gt;&lt;b&gt;Service&lt;/b&gt;&lt;/div&gt;" style="whiteSpace=wrap;html=1;" vertex="1" parent="HmFR4SPm93V1ZtyjPbFf-11">
          <mxGeometry x="310" y="40" width="80" height="120" as="geometry" />
        </mxCell>
        <mxCell id="HmFR4SPm93V1ZtyjPbFf-33" style="edgeStyle=orthogonalEdgeStyle;rounded=0;orthogonalLoop=1;jettySize=auto;html=1;entryX=-0.067;entryY=0.756;entryDx=0;entryDy=0;entryPerimeter=0;" edge="1" parent="1" source="HmFR4SPm93V1ZtyjPbFf-11" target="HmFR4SPm93V1ZtyjPbFf-2">
          <mxGeometry relative="1" as="geometry" />
        </mxCell>
        <mxCell id="HmFR4SPm93V1ZtyjPbFf-36" style="edgeStyle=orthogonalEdgeStyle;rounded=0;orthogonalLoop=1;jettySize=auto;html=1;entryX=0.5;entryY=0;entryDx=0;entryDy=0;entryPerimeter=0;" edge="1" parent="1" source="HmFR4SPm93V1ZtyjPbFf-2" target="10b056a9c633e61c-15">
          <mxGeometry relative="1" as="geometry" />
        </mxCell>
        <mxCell id="HmFR4SPm93V1ZtyjPbFf-41" value="&lt;b&gt;API Gateway/&lt;/b&gt;&lt;div&gt;&lt;b&gt;Router&lt;/b&gt;&lt;/div&gt;" style="whiteSpace=wrap;html=1;aspect=fixed;" vertex="1" parent="1">
          <mxGeometry x="620" y="420" width="80" height="80" as="geometry" />
        </mxCell>
        <mxCell id="HmFR4SPm93V1ZtyjPbFf-42" style="edgeStyle=orthogonalEdgeStyle;rounded=0;orthogonalLoop=1;jettySize=auto;html=1;entryX=0.483;entryY=-0.031;entryDx=0;entryDy=0;entryPerimeter=0;" edge="1" parent="1" source="HmFR4SPm93V1ZtyjPbFf-41" target="HmFR4SPm93V1ZtyjPbFf-11">
          <mxGeometry relative="1" as="geometry" />
        </mxCell>
        <mxCell id="HmFR4SPm93V1ZtyjPbFf-43" style="edgeStyle=orthogonalEdgeStyle;rounded=0;orthogonalLoop=1;jettySize=auto;html=1;exitX=0;exitY=0.5;exitDx=0;exitDy=0;entryX=0.485;entryY=1.103;entryDx=0;entryDy=0;entryPerimeter=0;" edge="1" parent="1" source="HmFR4SPm93V1ZtyjPbFf-11" target="HmFR4SPm93V1ZtyjPbFf-41">
          <mxGeometry relative="1" as="geometry" />
        </mxCell>
        <mxCell id="HmFR4SPm93V1ZtyjPbFf-49" style="edgeStyle=orthogonalEdgeStyle;rounded=0;orthogonalLoop=1;jettySize=auto;html=1;exitX=0.98;exitY=0.51;exitDx=0;exitDy=0;exitPerimeter=0;entryX=0;entryY=0.388;entryDx=0;entryDy=0;entryPerimeter=0;" edge="1" parent="1" source="HmFR4SPm93V1ZtyjPbFf-4" target="HmFR4SPm93V1ZtyjPbFf-41">
          <mxGeometry relative="1" as="geometry" />
        </mxCell>
        <mxCell id="HmFR4SPm93V1ZtyjPbFf-50" style="edgeStyle=orthogonalEdgeStyle;rounded=0;orthogonalLoop=1;jettySize=auto;html=1;entryX=1.147;entryY=0.657;entryDx=0;entryDy=0;entryPerimeter=0;" edge="1" parent="1" source="HmFR4SPm93V1ZtyjPbFf-41" target="HmFR4SPm93V1ZtyjPbFf-4">
          <mxGeometry relative="1" as="geometry" />
        </mxCell>
        <mxCell id="HmFR4SPm93V1ZtyjPbFf-54" style="edgeStyle=orthogonalEdgeStyle;rounded=0;orthogonalLoop=1;jettySize=auto;html=1;exitX=0;exitY=0.75;exitDx=0;exitDy=0;exitPerimeter=0;entryX=1.012;entryY=0.841;entryDx=0;entryDy=0;entryPerimeter=0;" edge="1" parent="1" source="10b056a9c633e61c-15" target="HmFR4SPm93V1ZtyjPbFf-11">
          <mxGeometry relative="1" as="geometry" />
        </mxCell>
        <mxCell id="HmFR4SPm93V1ZtyjPbFf-57" style="edgeStyle=orthogonalEdgeStyle;rounded=0;orthogonalLoop=1;jettySize=auto;html=1;exitX=1;exitY=0.75;exitDx=0;exitDy=0;entryX=-0.043;entryY=0.553;entryDx=0;entryDy=0;entryPerimeter=0;" edge="1" parent="1" source="HmFR4SPm93V1ZtyjPbFf-11" target="10b056a9c633e61c-15">
          <mxGeometry relative="1" as="geometry" />
        </mxCell>
      </root>
    </mxGraphModel>
  </diagram>
</mxfile>
